<?xml version="1.0" standalone="no"?>
<!DOCTYPE svg PUBLIC "-//W3C//DTD SVG 20010904//EN"
 "http://www.w3.org/TR/2001/REC-SVG-20010904/DTD/svg10.dtd">
<svg version="1.0" xmlns="http://www.w3.org/2000/svg"
 width="800.000000pt" height="800.000000pt" viewBox="0 0 800.000000 800.000000"
 preserveAspectRatio="xMidYMid meet">
<metadata>
Created by potrace 1.16, written by Peter Selinger 2001-2019
</metadata>
<g transform="translate(0.000000,800.000000) scale(0.100000,-0.100000)"
fill="#000000" stroke="none">
<path d="M78 7872 l-78 -3 0 -3834 0 -3835 4000 0 4000 0 0 3835 0 3835 -112
0 c-1045 3 -7754 4 -7810 2z m4255 -848 c12 -4 15 -51 20 -277 7 -376 32 -513
166 -892 6 -16 18 -60 27 -98 9 -37 23 -72 31 -78 15 -13 63 -9 193 15 105 20
258 21 283 2 23 -18 22 -31 -12 -79 -39 -57 -79 -91 -205 -178 -127 -87 -155
-102 -216 -120 -25 -7 -56 -20 -70 -28 -76 -49 -389 -161 -449 -161 -18 0 -50
-4 -70 -10 -191 -51 -629 -75 -826 -46 -60 9 -126 21 -145 26 -19 5 -64 14
-100 21 -103 19 -200 76 -200 117 0 29 22 48 70 61 25 7 59 18 75 25 17 8 90
29 164 47 113 28 135 37 144 56 7 17 7 72 -2 189 -15 202 -41 371 -82 524 -17
63 -37 147 -44 185 -14 81 -67 226 -120 333 -20 40 -35 80 -33 88 2 9 30 27
63 40 33 13 80 34 105 46 25 12 54 25 65 28 11 4 43 15 70 25 92 32 179 53
265 65 36 5 90 14 120 20 145 29 288 51 385 60 91 8 301 5 328 -6z m642 -1691
c88 -156 120 -432 75 -638 -23 -103 -127 -345 -206 -480 -59 -102 -88 -180
-111 -302 -17 -93 -20 -97 -102 -108 -58 -8 -216 -81 -266 -123 -16 -14 -57
-38 -90 -54 -55 -26 -69 -28 -176 -28 -108 0 -121 2 -182 30 -36 16 -81 42
-99 58 -18 16 -49 35 -68 44 -19 9 -60 27 -90 41 -30 14 -82 30 -114 36 -33 6
-61 13 -64 15 -2 3 -12 47 -22 99 -19 96 -67 228 -99 269 -24 30 -104 188
-131 257 -12 30 -32 78 -45 105 -34 74 -59 206 -60 321 l0 100 30 -1 c49 -1
168 -24 181 -35 6 -5 14 -48 17 -96 8 -123 86 -346 164 -468 17 -28 41 -75 54
-105 12 -30 27 -61 32 -67 5 -7 17 -48 28 -90 27 -116 68 -244 85 -271 14 -22
20 -23 117 -20 l102 3 3 109 c3 121 -2 140 -79 293 -22 43 -39 85 -39 94 0 21
-73 197 -100 241 -32 53 -26 72 47 151 38 40 73 73 79 75 11 3 84 -71 141
-143 l32 -40 68 68 c38 37 75 67 83 67 8 0 31 -16 50 -35 19 -19 43 -35 54
-35 11 0 39 19 62 41 26 26 48 40 57 36 22 -8 97 -113 97 -134 0 -10 -8 -31
-18 -48 -30 -48 -92 -195 -108 -254 -9 -29 -30 -83 -49 -120 -60 -120 -65
-137 -65 -241 0 -54 3 -105 6 -114 5 -13 24 -16 105 -16 114 0 121 5 139 98 5
29 14 60 18 70 5 9 17 51 26 92 19 80 86 228 140 309 39 57 117 248 141 345
14 54 16 97 13 205 -5 122 -8 145 -39 229 -38 106 -36 116 28 141 23 9 54 28
70 43 15 14 33 27 40 27 6 1 23 -20 38 -46z m-1446 -1654 c20 -6 54 -19 76
-29 22 -11 65 -27 95 -36 38 -12 71 -33 105 -65 l50 -47 -23 -40 c-30 -54 -31
-175 -2 -232 11 -22 20 -45 19 -52 0 -23 -79 -76 -137 -93 -31 -9 -73 -25 -92
-35 -69 -36 -172 -63 -221 -58 -30 3 -37 9 -61 57 -36 72 -63 230 -55 327 9
99 33 213 58 268 l20 46 66 0 c37 0 83 -5 102 -11z m1323 -32 c16 -40 23 -65
47 -170 15 -67 14 -223 -3 -304 -8 -37 -26 -94 -40 -125 -25 -57 -26 -58 -68
-58 -23 0 -55 4 -72 9 -17 5 -51 15 -76 22 -25 7 -58 20 -75 30 -16 9 -55 25
-86 34 -60 17 -125 59 -134 87 -3 9 4 34 15 56 29 55 28 220 -1 238 -18 11 -8
51 19 76 41 38 88 68 106 68 9 0 24 4 34 9 79 40 107 51 127 51 13 0 27 5 30
10 3 6 41 10 83 10 l77 0 17 -43z m-634 -204 l-3 -48 -120 0 -120 0 -3 33 c-6
61 -4 62 128 62 l121 0 -3 -47z m0 -195 l-3 -43 -100 -3 c-137 -4 -145 -1
-145 48 l0 40 126 0 125 0 -3 -42z m26 -189 c86 -41 120 -72 110 -102 -10 -31
-25 -40 -131 -77 -111 -38 -160 -37 -273 5 -80 29 -120 58 -120 85 0 18 79 80
102 80 7 0 27 9 43 19 23 15 49 20 117 20 78 1 94 -2 152 -30z m-3192 -707
c79 -46 99 -107 58 -186 l-19 -39 29 -33 c92 -105 40 -235 -110 -280 -38 -11
-333 -12 -347 -1 -19 14 -19 547 0 566 9 9 51 12 172 9 160 -3 160 -3 217 -36z
m590 -2 c67 -40 90 -78 96 -162 4 -48 0 -67 -23 -113 -15 -31 -38 -63 -51 -72
-13 -8 -24 -19 -24 -24 0 -5 23 -37 50 -71 50 -62 61 -92 38 -100 -11 -4 -102
-3 -133 1 -6 0 -28 30 -50 66 -42 69 -58 79 -116 73 l-34 -3 -3 -60 c-2 -33
-8 -64 -13 -70 -13 -13 -99 -15 -121 -3 -17 8 -18 32 -18 288 0 213 3 280 13
284 6 3 84 4 172 3 l160 -2 57 -35z m577 21 c24 -24 66 -113 108 -230 18 -52
56 -140 83 -197 28 -56 50 -108 50 -117 0 -8 -10 -17 -22 -20 -31 -7 -112 -1
-116 10 -2 4 -11 24 -20 43 l-17 35 -143 3 -142 3 -22 -45 c-25 -52 -53 -61
-150 -47 -17 2 -6 37 41 131 28 54 62 134 76 177 32 95 71 185 102 236 23 37
24 37 88 37 50 0 69 -4 84 -19z m472 -8 c6 -17 9 -124 7 -286 -2 -206 -6 -259
-17 -266 -17 -11 -101 -9 -118 2 -18 11 -19 547 -1 565 7 7 36 12 65 12 49 0
54 -2 64 -27z m303 -20 c34 -27 65 -63 76 -87 17 -39 144 -176 162 -176 4 0 8
61 8 136 0 74 5 144 10 155 9 15 22 19 63 19 29 0 58 -5 65 -12 16 -16 17
-554 2 -563 -6 -4 -34 -8 -62 -10 -47 -3 -54 -1 -82 29 -17 18 -58 62 -92 97
-33 35 -73 85 -87 111 -26 44 -69 88 -88 88 -5 0 -9 -70 -9 -155 0 -151 -1
-156 -22 -164 -32 -12 -109 -5 -119 11 -14 22 -11 542 3 556 7 7 35 12 64 12
47 0 57 -4 108 -47z m661 10 c19 -21 57 -71 83 -110 26 -40 51 -71 56 -70 5 2
28 33 50 69 23 37 58 85 79 107 36 39 41 41 95 41 83 0 94 -11 55 -52 -18 -19
-46 -61 -62 -95 -17 -34 -50 -84 -75 -112 -69 -78 -76 -96 -76 -210 0 -66 -4
-102 -12 -107 -19 -12 -90 -14 -110 -3 -16 8 -18 24 -18 113 l0 103 -40 54
c-22 30 -45 65 -52 79 -22 45 -90 144 -122 178 -38 41 -27 52 56 52 53 0 59
-3 93 -37z m1180 -28 l0 -60 -140 -5 -140 -5 -3 -57 -3 -58 105 0 c57 0 111
-3 120 -6 20 -8 23 -103 4 -122 -8 -8 -49 -12 -120 -12 l-108 0 0 -84 c0 -60
-4 -89 -14 -99 -19 -19 -124 -16 -137 4 -5 8 -9 134 -9 281 0 244 2 268 18
277 10 7 95 10 222 8 l205 -2 0 -60z m484 22 c74 -37 114 -81 141 -155 49
-130 6 -240 -131 -334 -99 -67 -202 -68 -313 -3 -88 52 -130 128 -130 240 0
69 4 89 31 147 26 56 38 70 74 89 135 68 217 73 328 16z m582 24 c110 -38 137
-57 165 -118 49 -106 57 -146 40 -208 -30 -117 -100 -190 -218 -226 -48 -15
-67 -17 -115 -8 -32 6 -70 17 -84 25 -38 19 -133 113 -152 150 -58 113 -7 279
108 348 94 56 170 67 256 37z m437 -203 c3 -255 -18 -227 172 -231 l125 -2 3
-57 c2 -47 0 -58 -15 -66 -10 -5 -105 -8 -211 -8 -159 1 -195 4 -202 16 -6 8
-10 134 -10 282 0 304 -4 290 85 285 l50 -2 3 -217z m677 211 c22 -6 63 -22
91 -35 42 -20 53 -32 64 -63 21 -64 13 -76 -52 -79 -45 -2 -60 1 -75 16 -26
28 -57 42 -92 42 -62 0 -110 -41 -76 -66 21 -16 92 -38 187 -59 88 -18 107
-35 128 -109 11 -41 10 -51 -10 -101 -26 -65 -63 -92 -152 -110 -49 -11 -72
-10 -123 0 -35 8 -73 19 -84 25 -35 18 -103 116 -99 142 3 20 9 23 56 26 47 3
57 0 87 -27 59 -51 185 -51 185 0 0 27 -33 44 -140 74 -116 32 -177 77 -187
138 -12 79 52 155 155 183 59 16 87 17 137 3z m-6785 -881 c0 -40 5 -80 10
-88 14 -23 162 -27 195 -6 23 15 25 23 25 91 0 73 1 75 25 75 l25 0 -2 -192
c-3 -185 -4 -193 -23 -193 -18 0 -20 8 -23 75 -2 41 -8 80 -14 87 -14 17 -189
18 -206 1 -7 -7 -12 -42 -12 -85 0 -69 -1 -73 -24 -79 -14 -3 -30 -3 -35 1 -7
4 -11 73 -11 196 l0 189 35 0 35 0 0 -72z m462 -50 c4 -138 18 -182 67 -211
46 -27 95 -22 135 14 46 39 56 79 56 212 l0 107 30 0 30 0 0 -131 c0 -116 -3
-136 -21 -169 -41 -73 -170 -102 -268 -60 -41 18 -48 26 -59 63 -6 23 -13 99
-14 170 -3 124 -3 127 18 127 21 0 22 -5 26 -122z m546 65 c23 -32 71 -89 106
-127 87 -93 96 -86 96 70 l0 114 35 0 35 0 0 -190 0 -190 -24 -6 c-41 -10 -58
3 -136 101 -75 96 -133 146 -150 129 -5 -5 -11 -59 -12 -119 l-3 -110 -28 0
-28 0 -2 193 -2 192 35 0 c32 0 40 -6 78 -57z m709 24 c37 -36 21 -53 -30 -32
-59 24 -130 20 -167 -11 -82 -69 -82 -154 -1 -241 27 -30 36 -33 86 -33 31 0
69 7 84 15 35 18 54 65 41 100 -9 22 -15 25 -64 25 -30 0 -58 5 -61 10 -4 6
25 10 79 10 l86 0 0 -70 0 -70 -51 -26 c-68 -34 -136 -36 -212 -5 -46 19 -63
32 -82 65 -63 109 -29 215 90 276 31 16 55 20 108 17 58 -2 71 -7 94 -30z
m440 13 c80 -49 88 -157 16 -232 -30 -32 -27 -62 13 -101 23 -23 24 -28 10
-33 -32 -12 -64 6 -88 49 -22 40 -26 42 -73 45 -57 4 -75 -12 -75 -66 0 -29
-3 -33 -22 -30 -23 3 -23 4 -26 196 l-2 192 107 0 c89 0 114 -3 140 -20z m242
-39 c22 -32 43 -70 46 -84 8 -30 39 -44 59 -28 7 6 35 47 62 91 41 67 53 79
76 80 l27 0 -21 -47 c-25 -56 -55 -101 -84 -125 -35 -28 -54 -81 -54 -146 0
-63 -7 -76 -34 -66 -13 5 -16 22 -16 84 0 75 -1 80 -33 114 -37 38 -113 145
-123 170 -5 13 1 16 25 16 26 0 36 -9 70 -59z m861 40 c0 -26 -19 -31 -119
-31 -54 0 -92 -5 -99 -12 -7 -7 -12 -38 -12 -69 0 -68 2 -69 111 -69 71 0 79
-2 79 -19 0 -25 -19 -31 -95 -31 -92 0 -95 -2 -95 -70 0 -61 -7 -74 -34 -64
-14 5 -16 32 -16 195 l0 189 140 0 c131 0 140 -1 140 -19z m348 0 c83 -43 128
-120 119 -202 -9 -73 -40 -111 -111 -139 -72 -28 -119 -28 -180 -2 -129 58
-127 250 4 340 42 28 116 30 168 3z m486 8 c54 -25 70 -161 28 -232 -27 -47
-27 -57 -2 -103 12 -20 19 -39 16 -41 -14 -14 -59 12 -92 52 -31 38 -42 45
-73 45 -46 0 -61 -14 -61 -56 0 -37 -12 -48 -43 -40 -22 5 -22 8 -22 196 l0
190 112 0 c62 0 123 -5 137 -11z m686 -14 c0 -24 -2 -25 -64 -25 -41 0 -68 -5
-73 -12 -4 -7 -10 -83 -13 -168 l-5 -155 -25 0 -25 0 -3 154 c-1 90 -7 160
-13 167 -6 7 -38 14 -72 16 -56 3 -62 5 -65 26 l-3 22 180 0 181 0 0 -25z
m377 5 c42 -25 63 -68 63 -128 0 -41 -5 -55 -36 -90 -41 -48 -41 -74 0 -113
28 -27 25 -39 -7 -39 -33 0 -65 26 -82 66 -13 32 -16 34 -64 34 -56 0 -71 -15
-71 -70 0 -28 -3 -31 -27 -28 l-28 3 -3 193 -2 192 112 0 c94 0 118 -3 145
-20z m430 8 c49 -22 107 -100 118 -160 8 -43 -8 -107 -36 -142 -52 -66 -165
-87 -246 -47 -23 12 -46 21 -50 21 -21 0 -53 81 -53 135 0 73 27 125 88 170
39 29 56 35 99 35 29 0 65 -6 80 -12z m275 -110 c2 -96 7 -132 22 -161 35 -70
118 -89 177 -40 49 41 59 77 59 208 l0 115 26 0 26 0 -4 -147 c-3 -105 -8
-155 -19 -171 -18 -29 -106 -62 -165 -62 -25 0 -67 9 -93 21 -62 26 -71 54
-71 228 0 122 1 131 19 131 18 0 20 -10 23 -122z m709 93 c33 -33 39 -91 14
-125 -20 -27 -19 -33 10 -58 29 -25 42 -80 27 -113 -17 -38 -68 -56 -173 -62
-53 -3 -108 -3 -123 1 l-26 6 0 190 0 190 121 0 c120 0 121 0 150 -29z m239
-134 c0 -113 4 -167 12 -175 8 -8 48 -12 115 -12 97 0 103 -1 103 -20 0 -20
-5 -20 -140 -18 l-141 3 -2 193 -2 192 28 0 27 0 0 -163z m638 141 c-3 -22 -8
-23 -102 -26 -55 -1 -106 -8 -113 -14 -15 -12 -17 -76 -4 -97 6 -9 34 -15 82
-18 86 -5 103 -9 94 -23 -3 -5 -41 -10 -84 -10 -46 0 -82 -5 -89 -12 -17 -17
-15 -103 2 -118 9 -7 54 -12 113 -13 80 -2 98 -5 98 -17 0 -12 -22 -16 -125
-18 -188 -4 -170 -26 -170 198 l0 190 151 0 c150 0 150 0 147 -22z"/>
<path d="M3807 4683 c-13 -21 -26 -43 -30 -49 -8 -13 61 -211 97 -279 51 -97
105 -215 117 -255 7 -22 18 -45 25 -51 7 -5 47 -9 90 -7 l78 3 13 45 c7 25 28
77 47 115 90 186 115 242 122 270 3 17 18 56 31 87 24 55 25 59 9 83 -9 14
-20 25 -24 25 -4 0 -25 -20 -45 -45 -21 -25 -44 -45 -51 -45 -8 0 -37 21 -65
46 l-51 46 -71 -67 c-39 -37 -78 -65 -87 -63 -8 2 -48 41 -87 87 -39 47 -77
87 -83 89 -6 2 -22 -14 -35 -35z"/>
<path d="M806 2244 c-3 -9 -6 -26 -6 -39 0 -50 7 -55 86 -55 61 0 78 4 94 20
26 26 25 55 -2 74 -32 23 -163 22 -172 0z"/>
<path d="M807 2033 c-12 -11 -8 -68 5 -81 26 -26 196 -8 199 21 6 54 -18 67
-116 67 -45 0 -85 -3 -88 -7z"/>
<path d="M1394 2247 c-3 -8 -4 -45 -2 -83 l3 -69 73 -3 c66 -3 74 -1 97 22 34
34 34 88 0 121 -21 22 -33 25 -95 25 -50 0 -72 -4 -76 -13z"/>
<path d="M2124 2173 c-3 -10 -17 -41 -30 -70 -13 -28 -24 -61 -24 -72 0 -19 6
-21 69 -21 39 0 73 5 76 11 7 11 -58 154 -75 164 -6 3 -13 -2 -16 -12z"/>
<path d="M5082 2230 c-42 -30 -82 -93 -82 -128 0 -61 59 -135 122 -154 52 -15
145 2 170 33 42 51 47 167 10 219 -48 65 -152 80 -220 30z"/>
<path d="M5732 2239 c-52 -26 -72 -67 -72 -149 0 -74 28 -119 85 -136 87 -27
153 -9 204 53 26 31 31 46 31 88 0 127 -130 202 -248 144z"/>
<path d="M2204 1508 c-4 -7 -9 -40 -10 -74 -3 -85 9 -99 80 -99 47 0 59 4 85
29 39 37 40 77 5 123 -24 31 -28 33 -89 33 -39 0 -67 -5 -71 -12z"/>
<path d="M3679 1497 c-67 -45 -88 -136 -47 -208 26 -46 70 -69 132 -69 39 0
52 6 86 36 78 71 76 163 -5 230 -52 43 -113 47 -166 11z"/>
<path d="M4152 1508 c-7 -7 -12 -40 -12 -79 0 -80 12 -94 81 -93 84 1 131 53
109 120 -7 19 -21 41 -33 49 -26 18 -128 20 -145 3z"/>
<path d="M5200 1501 c-13 -25 -13 -117 0 -141 11 -21 67 -35 104 -26 14 3 38
18 55 32 42 35 42 80 2 123 -26 28 -35 31 -90 31 -49 0 -62 -3 -71 -19z"/>
<path d="M5649 1480 c-22 -23 -41 -54 -45 -75 -10 -56 4 -102 45 -145 34 -36
43 -40 87 -40 94 0 152 56 154 148 1 93 -60 152 -156 152 -42 0 -51 -4 -85
-40z"/>
<path d="M6602 1508 c-7 -7 -12 -33 -12 -60 0 -60 18 -72 108 -66 71 5 92 20
92 68 0 47 -37 70 -111 70 -37 0 -70 -5 -77 -12z"/>
<path d="M6602 1348 c-7 -7 -12 -33 -12 -58 0 -25 5 -51 12 -58 17 -17 149
-16 173 2 27 20 27 92 0 112 -24 18 -156 19 -173 2z"/>
</g>
</svg>
