<?xml version="1.0" encoding="utf-8"?>
<!-- Generator: Adobe Illustrator 16.0.0, SVG Export Plug-In . SVG Version: 6.00 Build 0)  -->
<!DOCTYPE svg PUBLIC "-//W3C//DTD SVG 1.1//EN" "http://www.w3.org/Graphics/SVG/1.1/DTD/svg11.dtd">
<svg version="1.1" id="Layer_1" xmlns="http://www.w3.org/2000/svg" xmlns:xlink="http://www.w3.org/1999/xlink" x="0px" y="0px"
	 width="1600px" height="713px" viewBox="0 0 1600 713" enable-background="new 0 0 1600 713" xml:space="preserve">
<rect fill="#FFFFFF" width="1600" height="713"/>
<g>
	<g opacity="0.5">
		<path fill="#EBEBEB" d="M429.712,358.5c22.126,0,40.128,18.002,40.128,40.128s-18.001,40.127-40.128,40.127
			c-22.126,0-40.127-18.001-40.127-40.127S407.586,358.5,429.712,358.5 M429.712,356.5c-23.266,0-42.127,18.861-42.127,42.127
			s18.861,42.127,42.127,42.127c23.267,0,42.128-18.86,42.128-42.127S452.979,356.5,429.712,356.5L429.712,356.5z"/>
	</g>
	<g opacity="0.5">
		<ellipse fill="#EBEBEB" cx="416.024" cy="384.659" rx="6.219" ry="11.134"/>
	</g>
	<g opacity="0.5">
		<ellipse fill="#EBEBEB" cx="443.399" cy="384.659" rx="6.219" ry="11.134"/>
	</g>
	<path opacity="0.5" fill="none" stroke="#EBEBEB" stroke-width="2" stroke-miterlimit="10" d="M407.372,419.389
		c4.26-7.516,12.781-12.645,22.598-12.645c9.436,0,17.674,4.737,22.083,11.78"/>
</g>
<g>
	<g opacity="0.5">
		<path fill="#EBEBEB" d="M303.615,110.942c22.126,0,40.128,18.002,40.128,40.128s-18.001,40.127-40.128,40.127
			c-22.126,0-40.127-18.001-40.127-40.127S281.489,110.942,303.615,110.942 M303.615,108.943c-23.266,0-42.127,18.861-42.127,42.127
			s18.861,42.127,42.127,42.127c23.267,0,42.128-18.86,42.128-42.127S326.881,108.943,303.615,108.943L303.615,108.943z"/>
	</g>
	<g opacity="0.5">
		<ellipse fill="#EBEBEB" cx="289.927" cy="137.102" rx="6.219" ry="11.134"/>
	</g>
	<g opacity="0.5">
		<ellipse fill="#EBEBEB" cx="317.302" cy="137.102" rx="6.219" ry="11.134"/>
	</g>
	<path opacity="0.5" fill="none" stroke="#EBEBEB" stroke-width="2" stroke-miterlimit="10" d="M281.275,171.831
		c4.26-7.516,12.781-12.645,22.598-12.645c9.436,0,17.674,4.737,22.083,11.78"/>
</g>
<g>
	<g opacity="0.5">
		<path fill="#EBEBEB" d="M961.479,156.174c22.127,0,40.128,18.002,40.128,40.128s-18.001,40.127-40.128,40.127
			c-22.126,0-40.127-18.001-40.127-40.127S939.354,156.174,961.479,156.174 M961.479,154.175c-23.266,0-42.127,18.861-42.127,42.127
			s18.861,42.127,42.127,42.127c23.267,0,42.128-18.86,42.128-42.127S984.746,154.175,961.479,154.175L961.479,154.175z"/>
	</g>
	<g opacity="0.5">
		<ellipse fill="#EBEBEB" cx="947.792" cy="182.333" rx="6.219" ry="11.134"/>
	</g>
	<g opacity="0.5">
		<ellipse fill="#EBEBEB" cx="975.167" cy="182.333" rx="6.219" ry="11.134"/>
	</g>
	<path opacity="0.5" fill="none" stroke="#EBEBEB" stroke-width="2" stroke-miterlimit="10" d="M939.14,217.063
		c4.26-7.516,12.781-12.645,22.598-12.645c9.436,0,17.674,4.737,22.082,11.78"/>
</g>
<g>
	<g opacity="0.5">
		<path fill="#EBEBEB" d="M686.081,451.756c22.126,0,40.128,18.002,40.128,40.128s-18.001,40.127-40.128,40.127
			c-22.126,0-40.127-18.001-40.127-40.127S663.955,451.756,686.081,451.756 M686.081,449.756c-23.266,0-42.127,18.861-42.127,42.128
			s18.861,42.127,42.127,42.127c23.267,0,42.128-18.86,42.128-42.127S709.348,449.756,686.081,449.756L686.081,449.756z"/>
	</g>
	<g opacity="0.5">
		<ellipse fill="#EBEBEB" cx="672.394" cy="477.915" rx="6.219" ry="11.134"/>
	</g>
	<g opacity="0.5">
		<ellipse fill="#EBEBEB" cx="699.769" cy="477.915" rx="6.219" ry="11.134"/>
	</g>
	<path opacity="0.5" fill="none" stroke="#EBEBEB" stroke-width="2" stroke-miterlimit="10" d="M663.741,512.645
		c4.26-7.516,12.781-12.645,22.598-12.645c9.436,0,17.674,4.737,22.083,11.78"/>
</g>
<g>
	<g opacity="0.5">
		<path fill="#EBEBEB" d="M894.788,620.188c15.097,0,27.378,12.281,27.378,27.378c0,15.096-12.281,27.377-27.378,27.377
			c-15.096,0-27.377-12.281-27.377-27.377C867.411,632.469,879.692,620.188,894.788,620.188 M894.788,618.188
			c-16.224,0-29.377,13.153-29.377,29.378s13.153,29.377,29.377,29.377c16.225,0,29.378-13.152,29.378-29.377
			S911.013,618.188,894.788,618.188L894.788,618.188z"/>
	</g>
	<g opacity="0.5">
		<ellipse fill="#EBEBEB" cx="885.243" cy="637.824" rx="4.337" ry="7.764"/>
	</g>
	<g opacity="0.5">
		<ellipse fill="#EBEBEB" cx="904.333" cy="637.824" rx="4.337" ry="7.764"/>
	</g>
	<path opacity="0.5" fill="none" stroke="#EBEBEB" stroke-width="2" stroke-miterlimit="10" d="M879.21,662.043
		c2.97-5.24,8.912-8.817,15.759-8.817c6.579,0,12.325,3.303,15.398,8.215"/>
</g>
<g>
	<g opacity="0.5">
		<path fill="#EBEBEB" d="M1377.667,652.226c15.097,0,27.378,12.281,27.378,27.378c0,15.096-12.281,27.377-27.378,27.377
			c-15.096,0-27.377-12.281-27.377-27.377C1350.29,664.507,1362.571,652.226,1377.667,652.226 M1377.667,650.226
			c-16.224,0-29.377,13.153-29.377,29.378s13.153,29.377,29.377,29.377c16.225,0,29.378-13.152,29.378-29.377
			S1393.892,650.226,1377.667,650.226L1377.667,650.226z"/>
	</g>
	<g opacity="0.5">
		<ellipse fill="#EBEBEB" cx="1368.122" cy="669.862" rx="4.337" ry="7.764"/>
	</g>
	<g opacity="0.5">
		<ellipse fill="#EBEBEB" cx="1387.212" cy="669.862" rx="4.337" ry="7.764"/>
	</g>
	<path opacity="0.5" fill="none" stroke="#EBEBEB" stroke-width="2" stroke-miterlimit="10" d="M1362.089,694.081
		c2.97-5.24,8.912-8.817,15.759-8.817c6.579,0,12.325,3.303,15.398,8.215"/>
</g>
<g>
	<g opacity="0.5">
		<path fill="#EBEBEB" d="M415.024,652.226c15.097,0,27.378,12.281,27.378,27.378c0,15.096-12.281,27.377-27.378,27.377
			c-15.096,0-27.377-12.281-27.377-27.377C387.647,664.507,399.928,652.226,415.024,652.226 M415.024,650.226
			c-16.224,0-29.377,13.153-29.377,29.378s13.153,29.377,29.377,29.377c16.225,0,29.378-13.152,29.378-29.377
			S431.249,650.226,415.024,650.226L415.024,650.226z"/>
	</g>
	<g opacity="0.5">
		<ellipse fill="#EBEBEB" cx="405.479" cy="669.862" rx="4.337" ry="7.764"/>
	</g>
	<g opacity="0.5">
		<ellipse fill="#EBEBEB" cx="424.569" cy="669.862" rx="4.337" ry="7.764"/>
	</g>
	<path opacity="0.5" fill="none" stroke="#EBEBEB" stroke-width="2" stroke-miterlimit="10" d="M399.446,694.081
		c2.97-5.24,8.912-8.817,15.759-8.817c6.579,0,12.325,3.303,15.398,8.215"/>
</g>
<g>
	<g opacity="0.5">
		<path fill="#EBEBEB" d="M1262.021,110.942c22.126,0,40.128,18.002,40.128,40.128s-18.002,40.127-40.128,40.127
			s-40.127-18.001-40.127-40.127S1239.895,110.942,1262.021,110.942 M1262.021,108.943c-23.266,0-42.127,18.861-42.127,42.127
			s18.861,42.127,42.127,42.127c23.267,0,42.128-18.86,42.128-42.127S1285.287,108.943,1262.021,108.943L1262.021,108.943z"/>
	</g>
	<g opacity="0.5">
		<ellipse fill="#EBEBEB" cx="1248.333" cy="137.102" rx="6.219" ry="11.134"/>
	</g>
	<g opacity="0.5">
		<ellipse fill="#EBEBEB" cx="1275.708" cy="137.102" rx="6.219" ry="11.134"/>
	</g>
	<path opacity="0.5" fill="none" stroke="#EBEBEB" stroke-width="2" stroke-miterlimit="10" d="M1239.681,171.831
		c4.26-7.516,12.78-12.645,22.598-12.645c9.436,0,17.675,4.737,22.083,11.78"/>
</g>
<g>
	<g opacity="0.5">
		<path fill="#EBEBEB" d="M1391.355,358.766c22.126,0,40.128,18.002,40.128,40.128s-18.002,40.127-40.128,40.127
			s-40.127-18.001-40.127-40.127S1369.229,358.766,1391.355,358.766 M1391.355,356.766c-23.266,0-42.127,18.861-42.127,42.128
			s18.861,42.127,42.127,42.127c23.267,0,42.128-18.86,42.128-42.127S1414.622,356.766,1391.355,356.766L1391.355,356.766z"/>
	</g>
	<g opacity="0.5">
		<ellipse fill="#EBEBEB" cx="1377.668" cy="384.925" rx="6.219" ry="11.134"/>
	</g>
	<g opacity="0.5">
		<ellipse fill="#EBEBEB" cx="1405.043" cy="384.925" rx="6.219" ry="11.134"/>
	</g>
	<path opacity="0.5" fill="none" stroke="#EBEBEB" stroke-width="2" stroke-miterlimit="10" d="M1369.016,419.654
		c4.26-7.516,12.78-12.645,22.598-12.645c9.436,0,17.675,4.737,22.083,11.78"/>
</g>
<g>
	<g opacity="0.5">
		<path fill="#EBEBEB" d="M621.094,111.341c32.604,0,59.128,26.524,59.128,59.127c0,32.603-26.524,59.127-59.128,59.127
			c-32.603,0-59.127-26.524-59.127-59.127C561.967,137.866,588.491,111.341,621.094,111.341 M621.094,109.341
			c-33.759,0-61.127,27.367-61.127,61.127s27.368,61.127,61.127,61.127c33.76,0,61.128-27.367,61.128-61.127
			S654.854,109.341,621.094,109.341L621.094,109.341z"/>
	</g>
	<g opacity="0.5">
		<ellipse fill="#EBEBEB" cx="601.233" cy="150.2" rx="9.023" ry="16.155"/>
	</g>
	<g opacity="0.5">
		<ellipse fill="#EBEBEB" cx="640.954" cy="150.2" rx="9.023" ry="16.155"/>
	</g>
	<path opacity="0.5" fill="none" stroke="#EBEBEB" stroke-width="2" stroke-miterlimit="10" d="M588.678,200.593
		c6.181-10.905,18.545-18.347,32.79-18.347c13.691,0,25.646,6.874,32.042,17.093"/>
</g>
<g>
	<g opacity="0.5">
		<path fill="#EBEBEB" d="M896.045,302.374c32.235,0,58.461,26.225,58.461,58.46c0,32.234-26.226,58.459-58.461,58.459
			c-32.234,0-58.459-26.225-58.459-58.459C837.586,328.599,863.811,302.374,896.045,302.374 M896.045,300.374
			c-33.391,0-60.459,27.069-60.459,60.46s27.068,60.459,60.459,60.459c33.392,0,60.461-27.067,60.461-60.459
			S929.437,300.374,896.045,300.374L896.045,300.374z"/>
	</g>
	<g opacity="0.5">
		<ellipse fill="#EBEBEB" cx="876.401" cy="340.787" rx="8.925" ry="15.979"/>
	</g>
	<g opacity="0.5">
		<ellipse fill="#EBEBEB" cx="915.688" cy="340.787" rx="8.925" ry="15.979"/>
	</g>
	<path opacity="0.5" fill="none" stroke="#EBEBEB" stroke-width="2" stroke-miterlimit="10" d="M863.983,390.63
		c6.112-10.788,18.342-18.146,32.433-18.146c13.54,0,25.364,6.798,31.691,16.906"/>
</g>
<g>
	<g opacity="0.5">
		<path fill="#EBEBEB" d="M1118.629,435.091c33.521,0,60.794,27.271,60.794,60.793c0,33.521-27.272,60.792-60.794,60.792
			c-33.521,0-60.792-27.271-60.792-60.792C1057.837,462.362,1085.108,435.091,1118.629,435.091 M1118.629,433.091
			c-34.68,0-62.792,28.113-62.792,62.793c0,34.681,28.112,62.792,62.792,62.792s62.794-28.111,62.794-62.792
			C1181.423,461.204,1153.309,433.091,1118.629,433.091L1118.629,433.091z"/>
	</g>
	<g opacity="0.5">
		<path fill="#EBEBEB" d="M1107.496,475.063c0,9.165-4.152,16.596-9.269,16.596c-5.12,0-9.27-7.431-9.27-16.596
			s4.149-16.596,9.27-16.596C1103.344,458.467,1107.496,465.897,1107.496,475.063z"/>
	</g>
	<g opacity="0.5">
		<ellipse fill="#EBEBEB" cx="1139.031" cy="475.063" rx="9.269" ry="16.596"/>
	</g>
	<path opacity="0.5" fill="none" stroke="#EBEBEB" stroke-width="2" stroke-miterlimit="10" d="M1085.33,526.829
		c6.348-11.204,19.05-18.847,33.685-18.847c14.063,0,26.343,7.061,32.914,17.559"/>
</g>
<g>
	<g opacity="0.5">
		<path fill="#EBEBEB" d="M156.901,435.091c33.521,0,60.794,27.271,60.794,60.793c0,33.521-27.272,60.792-60.794,60.792
			c-33.521,0-60.792-27.271-60.792-60.792C96.109,462.362,123.381,435.091,156.901,435.091 M156.901,433.091
			c-34.68,0-62.792,28.113-62.792,62.793c0,34.681,28.112,62.792,62.792,62.792s62.794-28.111,62.794-62.792
			C219.695,461.204,191.581,433.091,156.901,433.091L156.901,433.091z"/>
	</g>
	<g opacity="0.5">
		<path fill="#EBEBEB" d="M145.769,475.063c0,9.165-4.152,16.596-9.269,16.596c-5.12,0-9.27-7.431-9.27-16.596
			s4.149-16.596,9.27-16.596C141.616,458.467,145.769,465.897,145.769,475.063z"/>
	</g>
	<g opacity="0.5">
		<ellipse fill="#EBEBEB" cx="177.303" cy="475.063" rx="9.269" ry="16.596"/>
	</g>
	<path opacity="0.5" fill="none" stroke="#EBEBEB" stroke-width="2" stroke-miterlimit="10" d="M123.603,526.829
		c6.348-11.204,19.05-18.847,33.685-18.847c14.063,0,26.343,7.061,32.914,17.559"/>
</g>
<g>
	<defs>
		<rect id="SVGID_1_" x="0" y="115.333" width="73.334" height="138.667"/>
	</defs>
	<clipPath id="SVGID_2_">
		<use xlink:href="#SVGID_1_"  overflow="visible"/>
	</clipPath>
	<g clip-path="url(#SVGID_2_)">
		<g opacity="0.5">
			<path fill="#EBEBEB" d="M-0.001,156.649c22.31,0,40.46,18.15,40.46,40.459c0,22.309-18.15,40.458-40.46,40.458
				c-22.309,0-40.458-18.149-40.458-40.458C-40.459,174.799-22.31,156.649-0.001,156.649 M-0.001,154.649
				c-23.449,0-42.458,19.01-42.458,42.459c0,23.45,19.009,42.458,42.458,42.458s42.46-19.008,42.46-42.458
				C42.459,173.659,23.448,154.649-0.001,154.649L-0.001,154.649z"/>
		</g>
		<g opacity="0.5">
			<ellipse fill="#EBEBEB" cx="-13.796" cy="183.029" rx="6.267" ry="11.222"/>
		</g>
		<g opacity="0.5">
			<ellipse fill="#EBEBEB" cx="13.795" cy="183.029" rx="6.267" ry="11.222"/>
		</g>
		<path opacity="0.5" fill="none" stroke="#EBEBEB" stroke-width="2" stroke-miterlimit="10" d="M-22.516,218.033
			c4.292-7.577,12.88-12.745,22.776-12.745c9.509,0,17.813,4.775,22.255,11.874"/>
	</g>
</g>
<g>
	<defs>
		<rect id="SVGID_3_" x="1490.5" y="53" width="109.5" height="244"/>
	</defs>
	<clipPath id="SVGID_4_">
		<use xlink:href="#SVGID_3_"  overflow="visible"/>
	</clipPath>
	<g clip-path="url(#SVGID_4_)">
		<g opacity="0.5">
			<path fill="#EBEBEB" d="M1582.114,110.358c33.521,0,60.794,27.271,60.794,60.793c0,33.521-27.272,60.792-60.794,60.792
				c-33.521,0-60.792-27.271-60.792-60.792C1521.322,137.63,1548.594,110.358,1582.114,110.358 M1582.114,108.358
				c-34.68,0-62.792,28.113-62.792,62.793c0,34.681,28.112,62.792,62.792,62.792s62.794-28.111,62.794-62.792
				C1644.908,136.472,1616.794,108.358,1582.114,108.358L1582.114,108.358z"/>
		</g>
		<g opacity="0.5">
			<path fill="#EBEBEB" d="M1570.981,150.33c0,9.165-4.152,16.596-9.269,16.596c-5.12,0-9.27-7.431-9.27-16.596
				s4.149-16.596,9.27-16.596C1566.829,133.734,1570.981,141.165,1570.981,150.33z"/>
		</g>
		<g opacity="0.5">
			<ellipse fill="#EBEBEB" cx="1602.516" cy="150.33" rx="9.269" ry="16.596"/>
		</g>
		<path opacity="0.5" fill="none" stroke="#EBEBEB" stroke-width="2" stroke-miterlimit="10" d="M1548.815,202.097
			c6.348-11.204,19.05-18.847,33.685-18.847c14.063,0,26.343,7.061,32.914,17.559"/>
	</g>
</g>
</svg>
