<?xml version="1.0" encoding="utf-8"?>
<!-- Generator: Adobe Illustrator 16.0.0, SVG Export Plug-In . SVG Version: 6.00 Build 0)  -->
<!DOCTYPE svg PUBLIC "-//W3C//DTD SVG 1.1//EN" "http://www.w3.org/Graphics/SVG/1.1/DTD/svg11.dtd">
<svg version="1.1" id="Layer_1" xmlns="http://www.w3.org/2000/svg" xmlns:xlink="http://www.w3.org/1999/xlink" x="0px" y="0px"
	 width="22.377px" height="25.737px" viewBox="0 0 22.377 25.737" enable-background="new 0 0 22.377 25.737" xml:space="preserve">
<g>
	<g>
		<path fill="#999999" d="M20.47,12.126l1.907-2.103l-1.674-1.518l-1.909,2.104l-4.938,1.162l0.519,2.199l3.685-0.868l-0.98,7.38
			L0.005,23.495l0.196,2.242h20.944v-5.972l-1.731,0.306L20.47,12.126z M5.077,7.892h2.104l-1.285,5.383l4.296,1.048l1.164,5.911
			l2.218-0.438l-1.443-7.326l-3.514-0.857l1.428-5.981h-5.81L0.69,8.693l1.479,1.709L5.077,7.892z M7.751,15.292l-2.202-0.508
			l-0.267,1.154l-4.156-1.075L0.56,17.051l6.403,1.656L7.751,15.292z M10.705,8.787l2.891,0.66l3.736-2.063l-1.094-1.978
			l-2.98,1.646l-2.049-0.468L10.705,8.787z M10.483,4.6c1.271,0,2.301-1.03,2.301-2.3c0-1.271-1.03-2.3-2.301-2.3
			S8.182,1.029,8.182,2.3C8.182,3.57,9.213,4.6,10.483,4.6z"/>
	</g>
</g>
</svg>
