<?xml version="1.0" encoding="utf-8"?>
<!-- Generator: Adobe Illustrator 16.0.0, SVG Export Plug-In . SVG Version: 6.00 Build 0)  -->
<!DOCTYPE svg PUBLIC "-//W3C//DTD SVG 1.1//EN" "http://www.w3.org/Graphics/SVG/1.1/DTD/svg11.dtd">
<svg version="1.1" id="Layer_1" xmlns="http://www.w3.org/2000/svg" xmlns:xlink="http://www.w3.org/1999/xlink" x="0px" y="0px"
	 width="29.539px" height="32.141px" viewBox="0 0 29.539 32.141" enable-background="new 0 0 29.539 32.141" xml:space="preserve">
<g>
	<g>
		<path fill="#86B817" d="M21.486,25.132c-0.068-0.311-0.294-0.909-1.038-1.347c-0.001-0.525-0.233-1.6-1.945-2.342
			c-0.511-0.221-1.134-0.541-1.781-0.91c0.01-0.535-0.248-1.042-0.705-1.362c-0.991-0.695-2.248-1.429-3.501-1.765
			c-0.09-0.031-0.143-0.097-0.095-0.153c0.01-0.013,0.03-0.015,0.049-0.02c0.219-0.064,0.814-0.025,2.338,0.963
			c0.479,0.311,0.901,0.28,1.173,0.201c0,0,0,0,0.001,0c0.444-0.131,0.825-0.508,1.018-1.007c0.208-0.542,0.165-1.137-0.114-1.592
			c-0.826-1.343-2.963-2.678-5.294-2.504c-1.208,0.089-4.896,0.417-6.948-1.625c-0.097-0.097-0.229-0.15-0.366-0.15
			c-0.137,0-0.284,0.042-0.365,0.152c-0.416,0.563-2.937,4.556-3.704,5.73c-0.088,0.136-0.168,0.275-0.146,0.435
			c0.021,0.16,0.126,0.285,0.256,0.381c0.8,0.59,1.493,1.032,2.031,1.455c-0.082,0.181-0.168,0.372-0.258,0.57
			c-0.652,1.442-1.464,3.238-2.027,4.271c-0.077,0.142-0.084,0.311-0.019,0.458c0.064,0.147,0.195,0.256,0.352,0.293
			c3.504,0.844,5.065,2.415,6.443,3.803c0.326,0.327,0.634,0.637,0.956,0.926c1.504,1.35,5.045,1.824,6.558,2.026
			c0.26,0.035,0.484,0.065,0.566,0.083c0.361,0.078,0.969,0.028,1.477-0.121c0.703-0.206,1.183-0.575,1.388-1.066
			c0.082-0.196,0.118-0.403,0.108-0.619c0.23,0.008,0.484-0.011,0.733-0.084c0.327-0.097,0.845-0.354,1.097-1.041
			c0.149,0.004,0.302-0.016,0.453-0.06c0.52-0.152,0.967-0.579,1.197-1.14c0.224-0.545,0.219-1.145-0.009-1.718
			C21.523,25.951,21.575,25.539,21.486,25.132z M11.514,16.709c-0.105,0.148-0.157,0.324-0.152,0.513
			c-0.391-0.016-0.773,0.022-1.139,0.13c-0.069,0.021-0.138,0.043-0.205,0.068c-0.09,0.033-0.181,0.067-0.271,0.102
			c-0.505,0.19-1.026,0.387-1.554,0.541c-1.203,0.354-2.658,0.593-4.328-0.319c-0.251-0.137-0.565-0.044-0.703,0.207
			c-0.09,0.165-0.214,0.42-0.365,0.745c-0.438-0.322-0.808-0.532-1.307-0.959c-0.079-0.068-0.211-0.229-0.004-0.506
			c0.67-0.899,1.367-2.039,1.95-3.01c0.254-0.423,0.515-0.825,0.714-1.168c0.156-0.269,0.422-0.148,0.534-0.069
			c0.857,0.604,1.916,1.016,3.161,1.229c1.452,0.249,2.877,0.185,3.821,0.114c1.103-0.082,2.041,0.26,2.633,0.561
			c0.747,0.38,1.368,0.91,1.702,1.454c0.11,0.179,0.121,0.438,0.03,0.677c-0.075,0.194-0.21,0.346-0.343,0.385
			c-0.001,0-0.001,0-0.001,0c-0.034,0.01-0.138,0.04-0.317-0.076c-1.001-0.649-2.269-1.36-3.194-1.088
			C11.905,16.319,11.675,16.481,11.514,16.709z M18.933,23.312c-1.147-0.145-2.885-0.565-4.324-1.046
			c-1.725-0.576-2.698-0.949-2.653-1.243s1.704,0.164,3.074,0.752c0.269,0.114,0.546,0.136,0.803,0.06
			c0.197-0.058,0.372-0.17,0.514-0.322c0.631,0.354,1.235,0.662,1.744,0.883c0.623,0.27,1.045,0.609,1.224,0.979
			C19.194,23.35,19.067,23.328,18.933,23.312z M20.293,12.431c-0.131,0-0.251,0.07-0.316,0.184
			c-0.193,0.335-1.884,3.309-1.884,4.389c0,1.213,0.986,2.2,2.2,2.2s2.2-0.987,2.2-2.2c0-1.08-1.69-4.054-1.883-4.389
			C20.545,12.501,20.424,12.431,20.293,12.431z M29.021,3.736h-3.693V2.967c0-0.25-0.177-0.458-0.413-0.507V1.786h1.895
			c0.286,0,0.518-0.232,0.518-0.518v-0.75C27.327,0.231,27.095,0,26.809,0H21.31c-0.285,0-0.518,0.231-0.518,0.518v0.75
			c0,0.286,0.232,0.518,0.518,0.518h1.895v0.666c-0.272,0.016-0.488,0.24-0.488,0.517v0.768h-3.618
			c-1.788,0-2.899,1.099-2.899,2.868c0,1.392,0.059,3.223,0.06,3.241c0.009,0.279,0.238,0.501,0.518,0.501h3.882
			c0.286,0,0.519-0.231,0.519-0.518V8.354c0-0.023,0-0.081,0.004-0.121c0.024-0.005,0.066-0.011,0.13-0.011h7.711
			c0.286,0,0.518-0.232,0.518-0.518V4.254C29.539,3.968,29.307,3.736,29.021,3.736z"/>
	</g>
</g>
</svg>
