<?xml version="1.0" encoding="utf-8"?>
<!-- Generator: Adobe Illustrator 16.0.0, SVG Export Plug-In . SVG Version: 6.00 Build 0)  -->
<!DOCTYPE svg PUBLIC "-//W3C//DTD SVG 1.1//EN" "http://www.w3.org/Graphics/SVG/1.1/DTD/svg11.dtd">
<svg version="1.1" id="Layer_1" xmlns="http://www.w3.org/2000/svg" xmlns:xlink="http://www.w3.org/1999/xlink" x="0px" y="0px"
	 width="153px" height="46px" viewBox="0 0 153 46" enable-background="new 0 0 153 46" xml:space="preserve">
<g>
	<g>
		<path fill="#86B817" d="M12.08,19.952l-5.185-7.018c-2.124,2.033-2.385,5.909-0.988,10.199
			C7.937,22.423,10.043,21.354,12.08,19.952z M25.682,38.355l-5.187-7.016c-1.967,1.5-3.633,3.168-4.932,4.868
			C19.271,38.824,23.084,39.747,25.682,38.355z M10.5,31.412c1.239,1.528,2.579,2.858,3.951,3.961
			c1.375-1.824,3.128-3.591,5.202-5.173l-2.609-3.531L10.5,31.412z M6.378,24.437c0.77,1.94,1.854,3.932,3.258,5.852l6.566-4.759
			l-3.279-4.437C10.776,22.571,8.546,23.69,6.378,24.437z M3.833,16.115c-1.703,2.394-2.675,5.192-2.871,8.054
			c1.134-0.059,2.352-0.264,3.609-0.615C3.714,20.858,3.454,18.282,3.833,16.115z M8.484,31.123
			c-1.495-2.046-2.648-4.178-3.454-6.269c-1.422,0.395-2.803,0.619-4.1,0.675c0.055,3.1,1.018,6.213,2.975,8.911L8.484,31.123z
			 M21.694,40.284c-2.199-0.297-4.602-1.319-6.936-2.945c-0.717,1.081-1.281,2.163-1.68,3.217
			C15.892,41.235,18.876,41.169,21.694,40.284z M25.005,19.149l4.645-3.367c-2.006-2.663-4.711-4.514-7.676-5.502
			c-0.454,1.23-1.105,2.486-1.934,3.732C21.798,15.4,23.494,17.126,25.005,19.149z M11.757,40.179
			c0.444-1.209,1.08-2.442,1.889-3.667c-1.504-1.184-2.961-2.614-4.297-4.267L4.788,35.55C6.704,37.748,9.126,39.301,11.757,40.179z
			 M30.45,16.952l-4.625,3.354c1.18,1.75,2.11,3.55,2.796,5.316c1.451-0.406,2.857-0.64,4.181-0.695
			C32.752,22.181,31.989,19.424,30.45,16.952z M27.282,26.044c-0.646-1.622-1.518-3.281-2.61-4.904l-6.477,4.693l2.61,3.532
			C22.93,27.902,25.134,26.792,27.282,26.044z M27.751,27.35c-2.008,0.711-4.09,1.769-6.104,3.155l5.179,7.007
			C28.898,35.462,29.142,31.608,27.751,27.35z M32.763,26.29c-1.158,0.059-2.395,0.272-3.68,0.634
			c0.873,2.731,1.129,5.341,0.733,7.524C31.569,32.032,32.563,29.193,32.763,26.29z M20.653,9.897
			c-2.857-0.689-5.893-0.606-8.747,0.314c2.222,0.288,4.656,1.322,7.02,2.972C19.665,12.08,20.245,10.974,20.653,9.897z
			 M18.114,14.313c-3.68-2.602-7.461-3.539-10.061-2.203l5.178,7.007C15.176,17.637,16.821,15.993,18.114,14.313z M19.225,15.154
			c-1.368,1.798-3.102,3.542-5.151,5.103l3.279,4.438l6.5-4.711C22.435,18.084,20.853,16.462,19.225,15.154z M36.104,24.958
			l3.004,0.169c-0.558,3.309-5.916,18.711-20.998,18.738h-0.227c-11.439,0-14.949-4.217-16.021-6.742L0,37.898
			c1.268,2.983,5.276,7.967,17.884,7.967h0.232c16.892-0.032,22.484-17.051,23.016-20.626l2.846,0.16l-3.131-5.709L36.104,24.958z
			 M45.392,6.771c-0.59-1.246-1.529-1.064-2.02-0.924c-0.489,0.144-4.166,1.209-4.166,1.209s-3.411-6.241-4.242-6.715
			c-0.83-0.475-1.775,0.017-1.775,0.017l2.758,7.823l-4.074,1.813L29.871,8.22l-1.666,0.176c0,0,2.022,2.312,2.222,3.187
			c0.199,0.874-0.149,3.3-0.149,3.3l1.534-0.061l0.768-3.049l4.082-0.933l2.418,7.906c0,0,1.365,0.075,1.594-0.854
			c0.228-0.93-0.926-7.527-0.926-7.527s4.383-1.451,4.743-1.699C44.852,8.417,45.979,8.016,45.392,6.771z"/>
	</g>
</g>
<g>
	<path fill="#2C3E50" d="M50.499,23.03V20h12.089v3.03h-4.529V41h-3.03V23.03H50.499z"/>
	<path fill="#2C3E50" d="M64.628,41V29.42c0-0.26,0.02-0.56,0.06-0.9c0.12-1.039,0.415-1.795,0.886-2.265
		c0.47-0.47,1.225-0.784,2.265-0.944c0.26-0.041,0.49-0.061,0.69-0.061h1.47v2.609h-1.305c-0.971,0-1.455,0.532-1.455,1.594V41
		H64.628z"/>
	<path fill="#2C3E50" d="M72.218,36.77v-1.89c0-1.42,0.311-2.56,0.933-3.42c0.702-0.979,1.735-1.47,3.099-1.47h6.499v-1.065
		c0-0.284-0.1-0.532-0.301-0.745s-0.432-0.32-0.691-0.32h-9.538V25.25h9.331c2.059,0,3.309,0.971,3.75,2.91
		c0.039,0.32,0.059,0.561,0.059,0.72v8.101c0,0.72-0.189,1.39-0.568,2.01C83.947,40.33,82.857,41,81.518,41h-5.25
		c-0.78,0-1.54-0.27-2.28-0.811c-0.74-0.539-1.25-1.18-1.529-1.92C72.298,37.83,72.218,37.33,72.218,36.77z M75.523,38.15
		c0.303,0.16,0.796,0.24,1.481,0.24h3.568c1.451,0,2.176-0.521,2.176-1.561v-2.551c0-0.999-0.615-1.559-1.844-1.68h-4.202
		c-1.25,0.141-1.874,0.701-1.874,1.68v2.551C74.829,37.471,75.06,37.91,75.523,38.15z"/>
	<path fill="#2C3E50" d="M87.158,25.25h2.816l4.773,12.826l4.74-12.826h2.85l-5.369,14.43c-0.4,1.08-1.141,1.62-2.221,1.62
		s-1.82-0.54-2.221-1.62L87.158,25.25z"/>
	<path fill="#2C3E50" d="M104.139,36.859v-7.049c0-3.041,1.629-4.561,4.889-4.561h3.9c1.279,0,2.291,0.355,3.031,1.065
		c0.738,0.71,1.109,1.695,1.109,2.956v1.859l-10.32,4.798v0.69c0.119,0.681,0.281,1.131,0.482,1.351
		c0.24,0.28,0.68,0.421,1.322,0.421h8.695V41h-8.82c-1.24,0-2.264-0.38-3.074-1.141C104.543,39.1,104.139,38.1,104.139,36.859z
		 M106.748,33.05l7.68-3.569v-0.245c0-0.917-0.531-1.376-1.596-1.376h-4.307c-1.186,0-1.777,0.665-1.777,1.992V33.05z"/>
	<path fill="#2C3E50" d="M120.398,41V20h2.609v21H120.398z"/>
	<path fill="#2C3E50" d="M126.217,21.8c0-0.5,0.17-0.925,0.512-1.275c0.34-0.35,0.76-0.525,1.26-0.525s0.924,0.185,1.273,0.555
		c0.352,0.37,0.525,0.805,0.525,1.305c0,0.5-0.17,0.92-0.51,1.26c-0.34,0.34-0.76,0.51-1.26,0.51c-0.52,0-0.949-0.175-1.289-0.525
		C126.387,22.755,126.217,22.32,126.217,21.8z M126.697,41h2.641V25.25h-2.641V41z"/>
	<path fill="#2C3E50" d="M132.998,41V20h2.609v5.25h2.73v2.609h-2.73V41H132.998z"/>
	<path fill="#2C3E50" d="M139.896,36.859v-7.049c0-3.041,1.631-4.561,4.891-4.561h3.9c1.279,0,2.289,0.355,3.029,1.065
		s1.109,1.695,1.109,2.956v1.859l-10.32,4.798l0.002,0.69c0.119,0.681,0.279,1.131,0.48,1.351c0.24,0.28,0.682,0.421,1.324,0.421
		h8.695V41h-8.82c-1.24,0-2.266-0.38-3.076-1.141C140.303,39.1,139.896,38.1,139.896,36.859z M142.508,33.05l7.68-3.569v-0.245
		c0-0.917-0.533-1.376-1.598-1.376h-4.307c-1.184,0-1.775,0.665-1.775,1.992V33.05z"/>
</g>
</svg>
