<?xml version="1.0" encoding="utf-8"?>
<!-- Generator: Adobe Illustrator 16.0.0, SVG Export Plug-In . SVG Version: 6.00 Build 0)  -->
<!DOCTYPE svg PUBLIC "-//W3C//DTD SVG 1.1//EN" "http://www.w3.org/Graphics/SVG/1.1/DTD/svg11.dtd">
<svg version="1.1" class="Layer_pet" xmlns="http://www.w3.org/2000/svg" xmlns:xlink="http://www.w3.org/1999/xlink" x="0px" y="0px"
	 width="30px" height="29px" viewBox="0 0 30 29" enable-background="new 0 0 30 29" xml:space="preserve">
<g>
	<g>
		<path fill="#999999" d="M23.148,21.966l0.511-0.511c-1.983-1.725-4.528-4.586-6.714-6.708c0.27-0.539,0.107-1.206-0.408-1.549
			c-2.356-1.566-3.249-2.69-4.281-3.993c-0.463-0.583-0.941-1.187-1.576-1.875c-0.059-0.063-0.123-0.119-0.189-0.167
			c-0.245-0.227-0.518-0.42-0.799-0.556c0,0-0.301-0.166-0.645-0.231C8.719,6.314,8.338,6.312,8.338,6.312H8.329
			C8.292,6.313,8.254,6.32,8.217,6.322c-0.027,0.001-0.054-0.002-0.081,0C8.091,6.327,8.045,6.336,8,6.343
			C7.952,6.349,7.906,6.355,7.857,6.364c-2.362,0.371-4.85,2.214-7.591,5.633c-0.419,0.522-0.335,1.285,0.187,1.704
			c0.224,0.179,0.491,0.267,0.757,0.267c0.355,0,0.706-0.155,0.945-0.454c1.178-1.469,2.209-2.498,3.104-3.22l-0.995,4.645
			c-0.143,0.668,0.044,1.284,0.415,1.784l-0.313,4.782l-1.991,5.15c-0.308,0.794,0.088,1.688,0.881,1.994
			c0.184,0.071,0.371,0.104,0.557,0.104c0.618,0,1.201-0.374,1.438-0.986l2.076-5.371c0.057-0.146,0.091-0.3,0.101-0.455
			l0.183-2.783l1.833,2.896l1.517,5.555c0.184,0.689,0.808,1.145,1.489,1.145c0.131,0,0.264-0.017,0.397-0.053
			c0.823-0.219,1.312-1.063,1.093-1.887l-1.578-5.782c-0.039-0.151-0.104-0.296-0.187-0.428l-2.498-3.948
			c0.079-0.158,0.147-0.327,0.188-0.518l1.021-4.768c0.955,1.172,2.056,2.349,4.311,3.846c0.206,0.138,0.438,0.203,0.67,0.203
			c0.234,0,0.462-0.075,0.661-0.206C18.549,17.176,21.092,20.174,23.148,21.966z M10.441,6.489c1.723,0,3.12-1.397,3.12-3.122
			s-1.397-3.122-3.12-3.122c-1.724,0-3.121,1.397-3.121,3.122S8.718,6.489,10.441,6.489z M19.957,22.324l-1.078-0.866
			c-0.244-0.195-0.6-0.157-0.796,0.087s-0.157,0.601,0.087,0.796l1.1,0.885v2.402c0,0.014,0.002,0.026,0.004,0.039l-0.968,1.862
			c-0.145,0.277-0.037,0.619,0.24,0.764c0.084,0.043,0.173,0.063,0.261,0.063c0.205,0,0.402-0.11,0.503-0.305l0.975-1.873
			l1.09,1.895c0.105,0.182,0.296,0.283,0.491,0.283c0.097,0,0.193-0.023,0.282-0.075c0.271-0.156,0.364-0.502,0.208-0.773
			l-0.951-1.652h3.523v1.935c0,0.313,0.254,0.566,0.566,0.566s0.566-0.253,0.566-0.566v-2.121c0.002-0.013,0.004-0.026,0.004-0.041
			v-1.791l-2.638-1.513H19.957z M27.529,21.173c-0.35-0.33-0.467-0.716-0.86-0.995c-0.068-0.049-0.138-0.099-0.21-0.14
			c-0.044-0.024-0.059-0.054-0.053-0.101c0.017-0.162,0.032-0.325,0.046-0.488c0.022-0.291-0.061-0.556-0.295-0.728
			c-0.094-0.069-0.558-0.294-0.759,0.474c-0.044,0.168-0.104,0.334-0.183,0.486c-0.292,0.56-0.661,1.071-1.015,1.592
			c-0.162,0.238-0.323,0.476-0.484,0.713l2.477,1.41c0,0,0.478-0.522,0.544-0.493c0.093,0.042,0.187,0.082,0.279,0.122
			c0.273,0.119,0.558,0.174,0.855,0.156c0.506-0.029,1.033-0.299,1.081-0.905C28.998,21.719,27.647,21.284,27.529,21.173z"/>
	</g>
</g>
</svg>
