<?xml version="1.0" encoding="utf-8"?>
<!-- Generator: Adobe Illustrator 16.0.0, SVG Export Plug-In . SVG Version: 6.00 Build 0)  -->
<!DOCTYPE svg PUBLIC "-//W3C//DTD SVG 1.1//EN" "http://www.w3.org/Graphics/SVG/1.1/DTD/svg11.dtd">
<svg version="1.1" id="Layer_1" xmlns="http://www.w3.org/2000/svg" xmlns:xlink="http://www.w3.org/1999/xlink" x="0px" y="0px"
	 width="28.896px" height="25.686px" viewBox="0 0 28.896 25.686" enable-background="new 0 0 28.896 25.686" xml:space="preserve">
<path fill="#999999" d="M18.762,25.687H0v-1.75c0.342,0.271,0.777,0.436,1.246,0.436h16.22L18.762,25.687z M8.119,0
	C7.113,0,6.297,0.817,6.297,1.822c0,0.625,0.313,1.176,0.795,1.505c0.207-0.572,0.543-1.1,0.987-1.545
	c0.445-0.445,0.973-0.78,1.546-0.987C9.295,0.314,8.744,0,8.119,0z M7.598,4.775c0,1.919,1.558,3.474,3.475,3.474
	s3.475-1.558,3.475-3.474c0-1.92-1.558-3.474-3.475-3.474c-0.408,0-0.799,0.07-1.161,0.198C8.927,1.85,8.144,2.63,7.796,3.614
	C7.668,3.98,7.598,4.37,7.598,4.775z M5.711,9.569c-0.813,1.804-2.587,6.415-3.074,7.575h6.052c0.135-0.328,0.284-0.648,0.448-0.949
	c0.57-1.064,2.35-1.592,1.926-3.076c-0.003-0.012-0.009-0.023-0.012-0.039l1.594,1.512c0.119,0.113,0.262,0.203,0.414,0.262
	l4.358,1.664c0.146,0.055,0.299,0.082,0.448,0.082c0.506,0,0.981-0.307,1.17-0.807c0.247-0.646-0.076-1.371-0.725-1.619
	l-3.853-1.471c-0.18-0.07-0.345-0.174-0.484-0.306c0,0-3.392-3.218-3.396-3.22c-0.143-0.137-0.329-0.226-0.523-0.29
	c-0.046-0.016-0.095-0.03-0.144-0.043c-0.052-0.015-0.106-0.03-0.162-0.042c-0.847-0.226-1.788-0.417-2.66-0.341
	C6.803,8.484,6.488,8.557,6.245,8.725C5.965,8.926,5.849,9.267,5.711,9.569z M1.246,23.61h16.537l1.585,1.607
	c0.149,0.152,0.329,0.27,0.521,0.35c0.189,0.076,0.391,0.119,0.598,0.119h6.754c0.877,0,1.584-0.719,1.572-1.598
	c-0.016-0.861-0.734-1.545-1.597-1.545h-6.071l-4.127-4.188c-0.319-0.326-0.509-0.459-1.081-0.459c-0.988,0-14.69,0.008-14.69,0.008
	C0.558,17.905,0,18.464,0,19.153v2.889v0.322C0,23.054,0.558,23.61,1.246,23.61z M26.545,17.864c0-1.99-1.615-3.605-3.605-3.605
	s-3.605,1.615-3.605,3.605c0,1.988,1.615,3.604,3.605,3.604S26.545,19.856,26.545,17.864z"/>
</svg>
