<?xml version="1.0" encoding="utf-8"?>
<!-- Generator: Adobe Illustrator 16.0.0, SVG Export Plug-In . SVG Version: 6.00 Build 0)  -->
<!DOCTYPE svg PUBLIC "-//W3C//DTD SVG 1.1//EN" "http://www.w3.org/Graphics/SVG/1.1/DTD/svg11.dtd">
<svg version="1.1" id="Layer_1" xmlns="http://www.w3.org/2000/svg" xmlns:xlink="http://www.w3.org/1999/xlink" x="0px" y="0px"
	 width="32.098px" height="22.763px" viewBox="0 0 32.098 22.763" enable-background="new 0 0 32.098 22.763" xml:space="preserve">
<path fill="#999999" d="M32.098,22.763c-0.696,0-1.349-0.152-1.958-0.456c-0.695-0.305-1.392-0.457-2.087-0.457
	c-0.696,0-1.37,0.152-2.022,0.457c-0.609,0.304-1.262,0.456-1.957,0.456c-0.696,0-1.349-0.152-1.957-0.456
	c-0.696-0.305-1.392-0.457-2.088-0.457s-1.37,0.152-2.022,0.457c-0.609,0.304-1.262,0.456-1.957,0.456
	c-0.696,0-1.349-0.152-1.957-0.456c-0.652-0.305-1.326-0.457-2.022-0.457s-1.392,0.152-2.088,0.457
	c-0.608,0.304-1.261,0.456-1.957,0.456s-1.349-0.152-1.957-0.456c-0.652-0.305-1.326-0.457-2.022-0.457
	c-0.695,0-1.37,0.152-2.022,0.457C1.37,22.61,0.696,22.763,0,22.763v-2.935c0.696,0,1.37-0.152,2.022-0.456
	c0.652-0.305,1.327-0.457,2.022-0.457c0.696,0,1.37,0.152,2.022,0.457c0.652,0.304,1.315,0.456,1.989,0.456
	c0.675,0,1.316-0.152,1.925-0.456c0.652-0.305,1.338-0.457,2.056-0.457c0.717,0,1.402,0.152,2.055,0.457
	c0.652,0.304,1.315,0.456,1.989,0.456c0.675,0,1.315-0.152,1.925-0.456c0.652-0.305,1.349-0.457,2.088-0.457
	c0.652,0,1.326,0.152,2.022,0.457c0.608,0.304,1.25,0.456,1.924,0.456c0.675,0,1.338-0.152,1.99-0.456
	c0.652-0.305,1.337-0.457,2.055-0.457s1.402,0.152,2.055,0.457c0.609,0.304,1.262,0.456,1.958,0.456V22.763L32.098,22.763z
	 M27.465,14.415c1.044,0,1.936-0.37,2.675-1.109s1.109-1.631,1.109-2.674c0-1.044-0.37-1.935-1.109-2.674s-1.642-1.109-2.707-1.109
	s-1.968,0.37-2.707,1.109s-1.109,1.63-1.109,2.674c0,1.087,0.359,1.989,1.076,2.707C25.41,14.056,26.334,14.415,27.465,14.415z
	 M5.219,16.567c0.262,0.043,0.544,0.13,0.849,0.261c0.652,0.304,1.315,0.456,1.989,0.456c0.675,0,1.316-0.152,1.925-0.456
	c0.696-0.305,1.381-0.457,2.055-0.457c0.675,0,1.359,0.152,2.056,0.457c0.652,0.304,1.315,0.456,1.989,0.456
	c0.675,0,1.315-0.152,1.925-0.456c0.695-0.305,1.381-0.457,2.055-0.457s1.359,0.152,2.055,0.457
	c0.609,0.304,1.262,0.456,1.958,0.456c0.478,0,0.956-0.087,1.435-0.261L19.18,5.675l7.372-1.37c0.565-0.087,1.022-0.326,1.37-0.717
	c0.348-0.392,0.521-0.87,0.521-1.436c0-0.565-0.217-1.065-0.652-1.5C27.356,0.218,26.856,0,26.291,0
	c-0.131,0-0.218,0.022-0.261,0.065L14.613,2.087c-0.479,0.13-0.881,0.467-1.207,1.011c-0.326,0.543-0.358,1.142-0.098,1.793
	l0.065,0.098l0.065,0.098l3,5.348L5.219,16.567L5.219,16.567z"/>
</svg>
