<?xml version="1.0" encoding="utf-8"?>
<!-- Generator: Adobe Illustrator 16.0.0, SVG Export Plug-In . SVG Version: 6.00 Build 0)  -->
<!DOCTYPE svg PUBLIC "-//W3C//DTD SVG 1.1//EN" "http://www.w3.org/Graphics/SVG/1.1/DTD/svg11.dtd">
<svg version="1.1" id="Layer_1" xmlns="http://www.w3.org/2000/svg" xmlns:xlink="http://www.w3.org/1999/xlink" x="0px" y="0px"
	 width="43px" height="44px" viewBox="0 0 43 44" enable-background="new 0 0 43 44" xml:space="preserve">
<path fill="#FCB715" d="M41.131,20.241l-3.137-1.773c-0.675-0.381-1.727-0.658-2.503-0.658h-3.304c-0.193,0-0.563-0.202-0.668-0.365
	L21.265,1.541c-0.523-0.808-1.596-1.395-2.553-1.395h-2.087c-0.655,0-1.222,0.286-1.555,0.784c-0.334,0.499-0.383,1.134-0.136,1.745
	l6.382,15.783l-12.894,0.29c-0.194,0-0.546-0.188-0.65-0.345l-1.819-2.773c-0.518-0.79-1.547-1.341-2.502-1.341l-1.175,0.046
	c-0.65,0.026-1.205,0.333-1.521,0.841c-0.316,0.508-0.35,1.143-0.088,1.745l1.772,4.078c0.193,0.445,0.314,0.907,0.326,0.975
	c-0.012,0.124-0.132,0.586-0.325,1.029l-1.773,4.08c-0.261,0.601-0.228,1.235,0.088,1.743c0.316,0.508,0.871,0.813,1.52,0.841
	l1.078,0.046l0.102,0.001c0.953,0,1.981-0.551,2.5-1.342L7.772,25.6c0.104-0.16,0.457-0.346,0.655-0.346l12.89,0.289l-6.382,15.782
	c-0.248,0.61-0.199,1.247,0.135,1.745c0.333,0.499,0.9,0.784,1.555,0.784h2.087c0.957,0,2.03-0.587,2.554-1.396L31.52,26.558
	c0.105-0.164,0.475-0.364,0.669-0.364h3.303c0.776,0,1.828-0.276,2.505-0.658l3.136-1.772c1.484-0.838,1.484-1.509,1.484-1.761
	C42.614,21.749,42.614,21.079,41.131,20.241z M36.896,23.564c-0.336,0.188-1.017,0.366-1.404,0.366h-3.303
	c-0.957,0-2.031,0.588-2.554,1.396L19.38,41.229c-0.106,0.165-0.475,0.366-0.668,0.366h-1.459l6.367-15.748
	c0.244-0.606,0.197-1.24-0.13-1.741c-0.327-0.5-0.888-0.796-1.537-0.811L8.421,22.994c-0.947,0-2.009,0.571-2.526,1.36l-1.817,2.771
	c-0.101,0.153-0.434,0.327-0.634,0.327l-0.479-0.02l1.533-3.525c0.19-0.438,0.512-1.333,0.512-1.907s-0.321-1.468-0.513-1.906
	l-1.532-3.526l0.484-0.02c0.193,0,0.527,0.173,0.627,0.326l1.818,2.772c0.517,0.789,1.579,1.361,2.579,1.361
	c0.001,0,0.001,0,0.001,0l13.478-0.302c0.649-0.015,1.209-0.311,1.537-0.811c0.326-0.5,0.374-1.135,0.13-1.742L17.253,2.407h1.459
	c0.194,0,0.562,0.202,0.668,0.365l10.255,15.905c0.522,0.808,1.597,1.395,2.554,1.395h3.303c0.388,0,1.068,0.179,1.404,0.368
	l2.764,1.562L36.896,23.564z"/>
</svg>
